# xmcd
#
# Track frame offsets: 
#        150
#        19468
#        37698
#        54228
#        71953
#        88811
#        111758
#        126966
#        145566
#
# Disc length: 2153 seconds
#
# Revision: 2
# Processed by: cddbd v1.5.2PL0 Copyright (c) Steve Scherf et al.
# Submitted via: ExactAudioCopy v0.99pb5
#
DISCID=78086709
DTITLE=Kenny Rogers - Greatest Country Hits, Vol. 2
DYEAR=2006
DGENRE=Country
TTITLE0=What About Me (with Kim Carnes and James Ingram)
TTITLE1=Tomb of the Unknown Love
TTITLE2=Crazy
TTITLE3=Make No Mistake, She's Mine (Duet with Ronnie Milsap)
TTITLE4=Twenty Years Ago
TTITLE5=I Prefer the Moonlight
TTITLE6=The Factory
TTITLE7=Morning Desire
TTITLE8=Evening Star
EXTD=
EXTT0=
EXTT1=
EXTT2=
EXTT3=
EXTT4=
EXTT5=
EXTT6=
EXTT7=
EXTT8=
PLAYORDER=
